<mxfile host="app.diagrams.net" modified="2023-12-15T12:27:03.936Z" agent="Mozilla/5.0 (X11; Ubuntu; Linux x86_64; rv:120.0) Gecko/20100101 Firefox/120.0" etag="ZucB_KiCBUeC6XZbyA7u" version="22.1.9" type="google">
  <diagram name="Page-1" id="2YBvvXClWsGukQMizWep">
    <mxGraphModel grid="1" page="1" gridSize="10" guides="1" tooltips="1" connect="1" arrows="1" fold="1" pageScale="1" pageWidth="850" pageHeight="1100" math="0" shadow="0">
      <root>
        <mxCell id="0" />
        <mxCell id="1" parent="0" />
        <mxCell id="aM9ryv3xv72pqoxQDRHE-1" value=":Client" style="shape=umlLifeline;perimeter=lifelinePerimeter;whiteSpace=wrap;html=1;container=0;dropTarget=0;collapsible=0;recursiveResize=0;outlineConnect=0;portConstraint=eastwest;newEdgeStyle={&quot;edgeStyle&quot;:&quot;elbowEdgeStyle&quot;,&quot;elbow&quot;:&quot;vertical&quot;,&quot;curved&quot;:0,&quot;rounded&quot;:0};" vertex="1" parent="1">
          <mxGeometry x="210" y="37" width="100" height="843" as="geometry" />
        </mxCell>
        <mxCell id="aM9ryv3xv72pqoxQDRHE-2" value="" style="html=1;points=[];perimeter=orthogonalPerimeter;outlineConnect=0;targetShapes=umlLifeline;portConstraint=eastwest;newEdgeStyle={&quot;edgeStyle&quot;:&quot;elbowEdgeStyle&quot;,&quot;elbow&quot;:&quot;vertical&quot;,&quot;curved&quot;:0,&quot;rounded&quot;:0};" vertex="1" parent="aM9ryv3xv72pqoxQDRHE-1">
          <mxGeometry x="45" y="100" width="10" height="650" as="geometry" />
        </mxCell>
        <mxCell id="aM9ryv3xv72pqoxQDRHE-4" value="" style="html=1;points=[];perimeter=orthogonalPerimeter;outlineConnect=0;targetShapes=umlLifeline;portConstraint=eastwest;newEdgeStyle={&quot;edgeStyle&quot;:&quot;elbowEdgeStyle&quot;,&quot;elbow&quot;:&quot;vertical&quot;,&quot;curved&quot;:0,&quot;rounded&quot;:0};" vertex="1" parent="aM9ryv3xv72pqoxQDRHE-1">
          <mxGeometry x="55" y="240" width="10" height="380" as="geometry" />
        </mxCell>
        <mxCell id="aM9ryv3xv72pqoxQDRHE-5" value="Server" style="shape=umlLifeline;perimeter=lifelinePerimeter;whiteSpace=wrap;html=1;container=0;dropTarget=0;collapsible=0;recursiveResize=0;outlineConnect=0;portConstraint=eastwest;newEdgeStyle={&quot;edgeStyle&quot;:&quot;elbowEdgeStyle&quot;,&quot;elbow&quot;:&quot;vertical&quot;,&quot;curved&quot;:0,&quot;rounded&quot;:0};" vertex="1" parent="1">
          <mxGeometry x="450" y="37" width="100" height="843" as="geometry" />
        </mxCell>
        <mxCell id="aM9ryv3xv72pqoxQDRHE-6" value="" style="html=1;points=[];perimeter=orthogonalPerimeter;outlineConnect=0;targetShapes=umlLifeline;portConstraint=eastwest;newEdgeStyle={&quot;edgeStyle&quot;:&quot;elbowEdgeStyle&quot;,&quot;elbow&quot;:&quot;vertical&quot;,&quot;curved&quot;:0,&quot;rounded&quot;:0};" vertex="1" parent="aM9ryv3xv72pqoxQDRHE-5">
          <mxGeometry x="45" y="130" width="10" height="550" as="geometry" />
        </mxCell>
        <mxCell id="aM9ryv3xv72pqoxQDRHE-7" value="connect" style="html=1;verticalAlign=bottom;endArrow=block;edgeStyle=elbowEdgeStyle;elbow=vertical;curved=0;rounded=0;" edge="1" parent="1">
          <mxGeometry x="-0.0029" relative="1" as="geometry">
            <mxPoint x="270" y="170" as="sourcePoint" />
            <Array as="points">
              <mxPoint x="280" y="170" />
            </Array>
            <mxPoint x="495" y="170" as="targetPoint" />
            <mxPoint as="offset" />
          </mxGeometry>
        </mxCell>
        <mxCell id="aM9ryv3xv72pqoxQDRHE-8" value="deleteClient" style="html=1;verticalAlign=bottom;endArrow=open;dashed=1;endSize=8;edgeStyle=elbowEdgeStyle;elbow=vertical;curved=0;rounded=0;" edge="1" parent="1">
          <mxGeometry relative="1" as="geometry">
            <mxPoint x="270" y="716" as="targetPoint" />
            <Array as="points">
              <mxPoint x="295" y="716" />
            </Array>
            <mxPoint x="495" y="716" as="sourcePoint" />
          </mxGeometry>
        </mxCell>
        <mxCell id="aM9ryv3xv72pqoxQDRHE-9" value="addClient" style="html=1;verticalAlign=bottom;endArrow=block;edgeStyle=elbowEdgeStyle;elbow=vertical;curved=0;rounded=0;" edge="1" parent="1">
          <mxGeometry relative="1" as="geometry">
            <mxPoint x="490" y="280" as="sourcePoint" />
            <Array as="points">
              <mxPoint x="300" y="280" />
            </Array>
            <mxPoint x="275" y="280" as="targetPoint" />
          </mxGeometry>
        </mxCell>
        <mxCell id="aM9ryv3xv72pqoxQDRHE-10" value="disconnect" style="html=1;verticalAlign=bottom;endArrow=open;dashed=1;endSize=8;edgeStyle=elbowEdgeStyle;elbow=vertical;curved=0;rounded=0;" edge="1" parent="1">
          <mxGeometry x="0.0044" relative="1" as="geometry">
            <mxPoint x="495" y="657" as="targetPoint" />
            <Array as="points">
              <mxPoint x="290" y="657" />
            </Array>
            <mxPoint x="275" y="657" as="sourcePoint" />
            <mxPoint as="offset" />
          </mxGeometry>
        </mxCell>
        <mxCell id="z1jBIOdIwxNhyDvHlj_x-10" value=":Player" style="shape=umlLifeline;perimeter=lifelinePerimeter;whiteSpace=wrap;html=1;container=1;dropTarget=0;collapsible=0;recursiveResize=0;outlineConnect=0;portConstraint=eastwest;newEdgeStyle={&quot;curved&quot;:0,&quot;rounded&quot;:0};participant=umlActor;verticalAlign=bottom;horizontal=1;" vertex="1" parent="1">
          <mxGeometry x="50" y="30" width="20" height="850" as="geometry" />
        </mxCell>
        <mxCell id="z1jBIOdIwxNhyDvHlj_x-12" value="" style="html=1;points=[[0,0,0,0,5],[0,1,0,0,-5],[1,0,0,0,5],[1,1,0,0,-5]];perimeter=orthogonalPerimeter;outlineConnect=0;targetShapes=umlLifeline;portConstraint=eastwest;newEdgeStyle={&quot;curved&quot;:0,&quot;rounded&quot;:0};" vertex="1" parent="z1jBIOdIwxNhyDvHlj_x-10">
          <mxGeometry x="5" y="70" width="10" height="740" as="geometry" />
        </mxCell>
        <mxCell id="z1jBIOdIwxNhyDvHlj_x-13" value=":Game" style="shape=umlLifeline;perimeter=lifelinePerimeter;whiteSpace=wrap;html=1;container=1;dropTarget=0;collapsible=0;recursiveResize=0;outlineConnect=0;portConstraint=eastwest;newEdgeStyle={&quot;curved&quot;:0,&quot;rounded&quot;:0};" vertex="1" parent="1">
          <mxGeometry x="670" y="37" width="100" height="843" as="geometry" />
        </mxCell>
        <mxCell id="z1jBIOdIwxNhyDvHlj_x-14" value="" style="html=1;points=[[0,0,0,0,5],[0,1,0,0,-5],[1,0,0,0,5],[1,1,0,0,-5]];perimeter=orthogonalPerimeter;outlineConnect=0;targetShapes=umlLifeline;portConstraint=eastwest;newEdgeStyle={&quot;curved&quot;:0,&quot;rounded&quot;:0};" vertex="1" parent="z1jBIOdIwxNhyDvHlj_x-13">
          <mxGeometry x="45" y="160" width="10" height="440" as="geometry" />
        </mxCell>
        <mxCell id="z1jBIOdIwxNhyDvHlj_x-16" value="startGame" style="html=1;verticalAlign=bottom;endArrow=block;edgeStyle=elbowEdgeStyle;elbow=vertical;curved=0;rounded=0;" edge="1" parent="1">
          <mxGeometry relative="1" as="geometry">
            <mxPoint x="510" y="200" as="sourcePoint" />
            <Array as="points">
              <mxPoint x="505" y="200" />
            </Array>
            <mxPoint x="719.5" y="200" as="targetPoint" />
          </mxGeometry>
        </mxCell>
        <mxCell id="z1jBIOdIwxNhyDvHlj_x-17" value="start" style="html=1;verticalAlign=bottom;endArrow=block;edgeStyle=elbowEdgeStyle;elbow=vertical;curved=0;rounded=0;" edge="1" parent="1">
          <mxGeometry x="-0.0048" relative="1" as="geometry">
            <mxPoint x="70" y="140" as="sourcePoint" />
            <Array as="points">
              <mxPoint x="85" y="140" />
            </Array>
            <mxPoint x="250" y="140" as="targetPoint" />
            <mxPoint as="offset" />
          </mxGeometry>
        </mxCell>
        <mxCell id="z1jBIOdIwxNhyDvHlj_x-20" value=":Board" style="shape=umlLifeline;perimeter=lifelinePerimeter;whiteSpace=wrap;html=1;container=1;dropTarget=0;collapsible=0;recursiveResize=0;outlineConnect=0;portConstraint=eastwest;newEdgeStyle={&quot;curved&quot;:0,&quot;rounded&quot;:0};" vertex="1" parent="1">
          <mxGeometry x="880" y="40" width="100" height="840" as="geometry" />
        </mxCell>
        <mxCell id="z1jBIOdIwxNhyDvHlj_x-25" value="" style="html=1;points=[[0,0,0,0,5],[0,1,0,0,-5],[1,0,0,0,5],[1,1,0,0,-5]];perimeter=orthogonalPerimeter;outlineConnect=0;targetShapes=umlLifeline;portConstraint=eastwest;newEdgeStyle={&quot;curved&quot;:0,&quot;rounded&quot;:0};" vertex="1" parent="z1jBIOdIwxNhyDvHlj_x-20">
          <mxGeometry x="45" y="217" width="10" height="343" as="geometry" />
        </mxCell>
        <mxCell id="z1jBIOdIwxNhyDvHlj_x-21" value=":Stones" style="shape=umlLifeline;perimeter=lifelinePerimeter;whiteSpace=wrap;html=1;container=1;dropTarget=0;collapsible=0;recursiveResize=0;outlineConnect=0;portConstraint=eastwest;newEdgeStyle={&quot;curved&quot;:0,&quot;rounded&quot;:0};" vertex="1" parent="1">
          <mxGeometry x="1110" y="40" width="100" height="840" as="geometry" />
        </mxCell>
        <mxCell id="z1jBIOdIwxNhyDvHlj_x-26" value="" style="html=1;points=[[0,0,0,0,5],[0,1,0,0,-5],[1,0,0,0,5],[1,1,0,0,-5]];perimeter=orthogonalPerimeter;outlineConnect=0;targetShapes=umlLifeline;portConstraint=eastwest;newEdgeStyle={&quot;curved&quot;:0,&quot;rounded&quot;:0};" vertex="1" parent="z1jBIOdIwxNhyDvHlj_x-21">
          <mxGeometry x="45" y="260" width="10" height="250" as="geometry" />
        </mxCell>
        <mxCell id="z1jBIOdIwxNhyDvHlj_x-22" value=":SingleStone" style="shape=umlLifeline;perimeter=lifelinePerimeter;whiteSpace=wrap;html=1;container=1;dropTarget=0;collapsible=0;recursiveResize=0;outlineConnect=0;portConstraint=eastwest;newEdgeStyle={&quot;curved&quot;:0,&quot;rounded&quot;:0};" vertex="1" parent="1">
          <mxGeometry x="1342" y="37" width="100" height="843" as="geometry" />
        </mxCell>
        <mxCell id="z1jBIOdIwxNhyDvHlj_x-27" value="" style="html=1;points=[[0,0,0,0,5],[0,1,0,0,-5],[1,0,0,0,5],[1,1,0,0,-5]];perimeter=orthogonalPerimeter;outlineConnect=0;targetShapes=umlLifeline;portConstraint=eastwest;newEdgeStyle={&quot;curved&quot;:0,&quot;rounded&quot;:0};" vertex="1" parent="z1jBIOdIwxNhyDvHlj_x-22">
          <mxGeometry x="45" y="313" width="10" height="157" as="geometry" />
        </mxCell>
        <mxCell id="z1jBIOdIwxNhyDvHlj_x-24" value="endGame" style="html=1;verticalAlign=bottom;endArrow=open;dashed=1;endSize=8;edgeStyle=elbowEdgeStyle;elbow=vertical;curved=0;rounded=0;" edge="1" parent="1" source="z1jBIOdIwxNhyDvHlj_x-14">
          <mxGeometry x="-0.0952" y="-5" relative="1" as="geometry">
            <mxPoint x="505" y="635" as="targetPoint" />
            <Array as="points">
              <mxPoint x="505" y="635" />
            </Array>
            <mxPoint x="710" y="635" as="sourcePoint" />
            <mxPoint as="offset" />
          </mxGeometry>
        </mxCell>
        <mxCell id="z1jBIOdIwxNhyDvHlj_x-28" value="createBoard" style="html=1;verticalAlign=bottom;endArrow=block;edgeStyle=elbowEdgeStyle;elbow=vertical;curved=0;rounded=0;" edge="1" parent="1">
          <mxGeometry relative="1" as="geometry">
            <mxPoint x="724.9999999999998" y="257.20512820512823" as="sourcePoint" />
            <Array as="points" />
            <mxPoint x="924.5" y="257" as="targetPoint" />
          </mxGeometry>
        </mxCell>
        <mxCell id="z1jBIOdIwxNhyDvHlj_x-29" value="dispatch" style="html=1;verticalAlign=bottom;endArrow=block;edgeStyle=elbowEdgeStyle;elbow=vertical;curved=0;rounded=0;" edge="1" parent="1" source="z1jBIOdIwxNhyDvHlj_x-25">
          <mxGeometry relative="1" as="geometry">
            <mxPoint x="940" y="300" as="sourcePoint" />
            <Array as="points">
              <mxPoint x="940" y="300" />
            </Array>
            <mxPoint x="1154.5" y="300" as="targetPoint" />
          </mxGeometry>
        </mxCell>
        <mxCell id="z1jBIOdIwxNhyDvHlj_x-30" value="dispatch" style="html=1;verticalAlign=bottom;endArrow=block;edgeStyle=elbowEdgeStyle;elbow=vertical;curved=0;rounded=0;" edge="1" parent="1" source="z1jBIOdIwxNhyDvHlj_x-26" target="z1jBIOdIwxNhyDvHlj_x-27">
          <mxGeometry relative="1" as="geometry">
            <mxPoint x="1170" y="350" as="sourcePoint" />
            <Array as="points">
              <mxPoint x="1170" y="350" />
            </Array>
            <mxPoint x="1384.5" y="350" as="targetPoint" />
          </mxGeometry>
        </mxCell>
      </root>
    </mxGraphModel>
  </diagram>
</mxfile>
